<?xml version="1.0" encoding="UTF-8"?>
<svg fill="none" style="-webkit-print-color-adjust:exact" version="1.1" width="274" height="67" xmlns="http://www.w3.org/2000/svg">
 <g fill="#000">
  <g transform="translate(-.159 -8)">
   <g class="fills">
    <path rx="0" ry="0" d="m6.251 8c-3.462 0-6.251 2.789-6.251 6.252v30.631c0 3.463 2.789 6.249 6.251 6.249h62.498c3.462 0 6.25-2.786 6.25-6.249v-30.631c0-3.463-2.788-6.252-6.25-6.252zm0 48.248c-3.462 0-6.251 2.789-6.251 6.252v6.252c0 3.463 2.789 6.248 6.251 6.248h62.498c3.462 0 6.25-2.785 6.25-6.248v-6.252c0-3.463-2.788-6.252-6.25-6.252z" fill="#7bcf3e"/>
   </g>
   <g class="strokes">
    <g class="stroke-shape">
     <path rx="0" ry="0" d="m6.251 8c-3.462 0-6.251 2.789-6.251 6.252v30.631c0 3.463 2.789 6.249 6.251 6.249h62.498c3.462 0 6.25-2.786 6.25-6.249v-30.631c0-3.463-2.788-6.252-6.25-6.252zm0 48.248c-3.462 0-6.251 2.789-6.251 6.252v6.252c0 3.463 2.789 6.248 6.251 6.248h62.498c3.462 0 6.25-2.785 6.25-6.248v-6.252c0-3.463-2.788-6.252-6.25-6.252z" fill="none"/>
    </g>
   </g>
   <g class="fills">
    <path rx="0" ry="0" d="m29.865 37.79-1.593 13.341h21.023zm-2.205 18.457-0.469 3.923 27.228-3.923z" fill="#7ad844"/>
   </g>
   <g class="strokes">
    <g class="stroke-shape">
     <path rx="0" ry="0" d="m29.865 37.79-1.593 13.341h21.023zm-2.205 18.457-0.469 3.923 27.228-3.923z" fill="none"/>
    </g>
   </g>
   <g class="fills">
    <path rx="0" ry="0" d="m52.823 21.308 3.027 29.823h8.094l11.056-7.036v-0.935z" fill="#9edc53"/>
   </g>
   <g class="strokes">
    <g class="stroke-shape">
     <path rx="0" ry="0" d="m52.823 21.308 3.027 29.823h8.094l11.056-7.036v-0.935z" fill="none"/>
    </g>
   </g>
   <g class="fills">
    <path rx="0" ry="0" d="M 9.864,8 0,14.951 v 3.568 L 29.865,37.79 21.534,8 Z" fill="#7dcd30"/>
   </g>
   <g class="strokes">
    <g class="stroke-shape">
     <path rx="0" ry="0" d="M 9.864,8 0,14.951 v 3.568 L 29.865,37.79 21.534,8 Z" fill="none"/>
    </g>
   </g>
   <g class="fills">
    <path rx="0" ry="0" d="m0 18.519v23.347l0.601 5.702c0.551 1.161 1.448 2.121 2.56 2.752l26.704-12.53z" fill="#79c931"/>
   </g>
   <g class="strokes">
    <g class="stroke-shape">
     <path rx="0" ry="0" d="m0 18.519v23.347l0.601 5.702c0.551 1.161 1.448 2.121 2.56 2.752l26.704-12.53z" fill="none"/>
    </g>
   </g>
   <g class="fills">
    <path rx="0" ry="0" d="M 30.919,8 52.823,21.308 47.409,8 Z" fill="#8dd63d"/>
   </g>
   <g class="strokes">
    <g class="stroke-shape">
     <path rx="0" ry="0" d="M 30.919,8 52.823,21.308 47.409,8 Z" fill="none"/>
    </g>
   </g>
  </g>
  <g id="shape-cf5bf646-12c7-80fa-8002-30bd0868910b" transform="translate(-.159 -8)">
   <g id="fills-cf5bf646-12c7-80fa-8002-30bd0868910b" class="fills">
    <path rx="0" ry="0" d="M 47.409,8 52.823,21.308 57.248,8 Z" fill="#81cd31"/>
   </g>
   <g id="strokes-cf5bf646-12c7-80fa-8002-30bd0868910b" class="strokes">
    <g class="stroke-shape">
     <path rx="0" ry="0" d="M 47.409,8 52.823,21.308 57.248,8 Z" fill="none"/>
    </g>
   </g>
  </g>
  <g transform="translate(-.159 -8)">
   <g class="fills">
    <path rx="0" ry="0" d="M 21.534,8 29.865,37.79 52.823,21.308 30.919,8 Z" fill="#83d03d"/>
   </g>
   <g class="strokes">
    <g class="stroke-shape">
     <path rx="0" ry="0" d="M 21.534,8 29.865,37.79 52.823,21.308 30.919,8 Z" fill="none"/>
    </g>
   </g>
  </g>
  <g id="shape-cf5bf646-12c7-80fa-8002-30bd0869972c" transform="translate(-.159 -8)">
   <g id="fills-cf5bf646-12c7-80fa-8002-30bd0869972c" class="fills">
    <path rx="0" ry="0" d="m29.865 37.79-26.704 12.53c0.911 0.516 1.964 0.811 3.09 0.811h22.021zm-14.301 18.457 11.627 3.923 0.469-3.923z" fill="#95d238"/>
   </g>
   <g id="strokes-cf5bf646-12c7-80fa-8002-30bd0869972c" class="strokes">
    <g class="stroke-shape">
     <path rx="0" ry="0" d="m29.865 37.79-26.704 12.53c0.911 0.516 1.964 0.811 3.09 0.811h22.021zm-14.301 18.457 11.627 3.923 0.469-3.923z" fill="none"/>
    </g>
   </g>
  </g>
  <g transform="translate(-.159 -8)">
   <g class="fills">
    <path rx="0" ry="0" d="m57.248 8-4.425 13.308 22.161-7.462c-0.208-3.272-2.91-5.846-6.236-5.846z" fill="#52c22d"/>
   </g>
   <g class="strokes">
    <g class="stroke-shape">
     <path rx="0" ry="0" d="m57.248 8-4.425 13.308 22.161-7.462c-0.208-3.272-2.91-5.846-6.236-5.846z" fill="none"/>
    </g>
   </g>
   <g class="fills">
    <path rx="0" ry="0" d="M 3.131,57.078 C 1.257,58.155 0,60.175 0,62.499 v 6.252 C 0,72.214 2.788,75 6.251,75 h 3.528 z" fill="#6ed036"/>
   </g>
   <g class="strokes">
    <g class="stroke-shape">
     <path rx="0" ry="0" d="M 3.131,57.078 C 1.257,58.155 0,60.175 0,62.499 v 6.252 C 0,72.214 2.788,75 6.251,75 h 3.528 z" fill="none"/>
    </g>
   </g>
  </g>
  <g id="shape-cf5bf646-12c7-80fa-8002-30bd086bbf7b" transform="translate(-.159 -8)">
   <g id="fills-cf5bf646-12c7-80fa-8002-30bd086bbf7b" class="fills">
    <path rx="0" ry="0" d="m6.251 56.247c-1.139 0-2.203 0.303-3.12 0.831l6.648 17.922h12.275l5.137-14.83-11.627-3.923z" fill="#8ace3d"/>
   </g>
   <g id="strokes-cf5bf646-12c7-80fa-8002-30bd086bbf7b" class="strokes">
    <g class="stroke-shape">
     <path rx="0" ry="0" d="m6.251 56.247c-1.139 0-2.203 0.303-3.12 0.831l6.648 17.922h12.275l5.137-14.83-11.627-3.923z" fill="none"/>
    </g>
   </g>
  </g>
  <g id="shape-cf5bf646-12c7-80fa-8002-30bd086c1d8d" transform="translate(-.159 -8)">
   <g id="fills-cf5bf646-12c7-80fa-8002-30bd086c1d8d" class="fills">
    <path rx="0" ry="0" d="m52.823 21.308-22.958 16.482 19.43 13.341h6.555z" fill="#79d841"/>
   </g>
   <g id="strokes-cf5bf646-12c7-80fa-8002-30bd086c1d8d" class="strokes">
    <g class="stroke-shape">
     <path rx="0" ry="0" d="m52.823 21.308-22.958 16.482 19.43 13.341h6.555z" fill="none"/>
    </g>
   </g>
  </g>
  <g transform="translate(-.159 -8)">
   <g class="fills">
    <path rx="0" ry="0" d="m74.984 13.846-22.161 7.462 22.177 21.852v-28.908c0-0.137-7e-3 -0.271-0.016-0.406z" fill="#78d235"/>
   </g>
   <g class="strokes">
    <g class="stroke-shape">
     <path rx="0" ry="0" d="m74.984 13.846-22.161 7.462 22.177 21.852v-28.908c0-0.137-7e-3 -0.271-0.016-0.406z" fill="none"/>
    </g>
   </g>
  </g>
  <g id="shape-cf5bf646-12c7-80fa-8002-30bd086d1f5a" transform="translate(-.159 -8)">
   <g id="fills-cf5bf646-12c7-80fa-8002-30bd086d1f5a" class="fills">
    <path rx="0" ry="0" d="m54.419 56.247-27.228 3.923 11.039 14.83h12.045l5.978-18.753z" fill="#3ecc30"/>
   </g>
   <g id="strokes-cf5bf646-12c7-80fa-8002-30bd086d1f5a" class="strokes">
    <g class="stroke-shape">
     <path rx="0" ry="0" d="m54.419 56.247-27.228 3.923 11.039 14.83h12.045l5.978-18.753z" fill="none"/>
    </g>
   </g>
  </g>
  <g transform="translate(-.159 -8)">
   <g class="fills">
    <path rx="0" ry="0" d="m27.191 60.17-5.137 14.83h16.176z" fill="#72d436"/>
   </g>
   <g class="strokes">
    <g class="stroke-shape">
     <path rx="0" ry="0" d="m27.191 60.17-5.137 14.83h16.176z" fill="none"/>
    </g>
   </g>
   <g class="fills">
    <path rx="0" ry="0" d="m75 44.095-11.056 7.036h4.804c3.463 0 6.252-2.784 6.252-6.247zm-18.436 12.152 14.661 18.245c2.224-0.955 3.775-3.159 3.775-5.741v-6.252c0-3.463-2.789-6.252-6.252-6.252z" fill="#a9d62c"/>
   </g>
   <g class="strokes">
    <g class="stroke-shape">
     <path rx="0" ry="0" d="m75 44.095-11.056 7.036h4.804c3.463 0 6.252-2.784 6.252-6.247zm-18.436 12.152 14.661 18.245c2.224-0.955 3.775-3.159 3.775-5.741v-6.252c0-3.463-2.789-6.252-6.252-6.252z" fill="none"/>
    </g>
   </g>
   <g class="fills">
    <path rx="0" ry="0" d="m56.253 56.247-5.978 18.753h18.473c0.881 0 1.718-0.182 2.477-0.508l-14.661-18.245z" fill="#69d03e"/>
   </g>
   <g class="strokes">
    <g class="stroke-shape">
     <path rx="0" ry="0" d="m56.253 56.247-5.978 18.753h18.473c0.881 0 1.718-0.182 2.477-0.508l-14.661-18.245z" fill="none"/>
    </g>
   </g>
  </g>
 </g>
 <path rx="0" ry="0" d="m88.072 25c-2.354 0-3.864 1.757-3.878 3.401v9.534c-2e-3 1.176 1.819 1.176 1.816 0v-6.362h1.868c0.436 0 0.81-0.311 0.81-0.809 0-0.499-0.4-0.802-0.81-0.802h-1.868v-1.467c0-0.938 0.747-1.718 2.251-1.7 0.523 7e-3 0.708 0.131 0.899 0.245 1.043 0.679 2.048-0.894 0.955-1.495-0.67-0.403-1.296-0.545-2.043-0.545zm19.847 0.169c-0.542 3e-3 -0.933 0.538-0.848 1.047v4.06c-1.796-1.48-4.722-1.377-6.38 0.261-1.677 1.469-1.996 4.131-0.776 5.965 0.896 1.384 2.535 2.372 4.224 2.293 1.062-9e-3 2.115-0.458 2.932-1.124-0.084 0.526 0.33 1.08 0.901 1.047 0.561 0.024 0.995-0.52 0.909-1.047-0.01-3.904 0.01-7.809-0.01-11.713-0.029-0.439-0.454-0.8-0.952-0.789zm0 0c0.032 0 0.015 0 0 0zm7.065 3.977c-1.316-1e-3 -2.578 0.509-3.509 1.416s-1.453 2.137-1.453 3.42c0 2.671 2.222 4.835 4.962 4.834 2.739 0 4.96-2.164 4.961-4.834 0-2.671-2.221-4.836-4.961-4.836zm16.204 0.043c-1.239 0-2.131 0.36-2.782 0.818-0.987 0.695 0.075 2.146 1.062 1.452 0.449-0.316 0.783-0.484 1.72-0.484 1.166 0.023 2.105 0.454 2.105 1.311-0.625 0.389-3.345 0.71-4.805 1.526-1.461 0.816-1.383 1.846-1.383 2.515 0 1.466 1.572 2.454 2.934 2.454s1.94-0.281 3.273-1.178v0.257c-0.043 1.231 1.863 1.231 1.82 0v-5.262c6e-3 -2.183-1.589-3.376-3.944-3.409zm-9.033 0.018c-0.788 0-0.919 0.639-0.915 0.897v7.762c-0.022 0.502 0.401 0.92 0.93 0.92s0.952-0.418 0.931-0.92c0 0 0.014-2.887 0-4.735-0.014-1.847 1.516-2.247 2.048-2.247 0.396 0 0.711 0.216 1.025 0.205 0.465-0.018 0.847-0.325 0.847-0.862-0.014-0.868-1.098-0.991-1.897-0.975s-1.474 0.257-2.058 0.6c0 0-0.123-0.645-0.911-0.645zm-28.25 9e-3c-0.51 7e-3 -1.062 0.112-1.658 0.339-1.776 0.674-2.982 2.331-2.987 4.376-5e-3 2.142 1.523 4.907 4.687 4.927 2.128 0.014 3.192-0.768 3.767-1.299 0.381-0.332 0.408-0.907 0.059-1.271-0.35-0.365-0.938-0.374-1.298-0.019-0.429 0.395-1.06 0.983-2.851 0.787-0.769-0.083-1.594-0.697-1.87-1.166l5.869-2.451c0.448-0.196 0.654-0.708 0.464-1.153-0.835-1.614-2.183-3.098-4.182-3.07zm21.079 1.741c0.823 0 1.613 0.318 2.195 0.886 0.582 0.567 0.909 1.337 0.908 2.139 0 1.67-1.389 3.024-3.103 3.024s-3.103-1.354-3.103-3.024c0-0.802 0.327-1.572 0.909-2.139 0.582-0.568 1.371-0.886 2.194-0.886zm-10.953 0.047c1.622-0.042 3.07 1.394 3.04 2.972 0.034 1.581-1.419 3.013-3.04 2.972-1.54 0.04-2.953-1.242-3.032-2.745-0.164-1.55 1.132-3.061 2.718-3.184 0.104-0.01 0.209-0.015 0.314-0.015zm-10.238 0.048c0.882 1e-3 1.714 0.446 2.137 1.167l-4.883 2.05c-0.349-1.278 1.08-2.783 1.86-3.063 0.292-0.105 0.592-0.155 0.886-0.154zm39.563 2.992c0 0.579 9e-3 0.746-7e-3 1.324-4e-3 0.695-0.448 1.017-0.913 1.283s-1.41 0.499-1.958 0.524c-0.631 0.021-1.468-0.119-1.512-0.855 1e-3 -0.444 0.22-0.72 0.579-1.027 0.851-0.627 2.004-0.838 3.811-1.249z" fill="#51a2da" fill-rule="evenodd"/>
 <path transform="translate(-.159 -8)" d="m89.34661 72.65441-5.684994-17.15h3.308078l5.072387 15.5085h-1.641787l5.268421-15.5085h2.940514l5.121391 15.5085h-1.59277l5.1949-15.5085h3.03854l-5.685 17.15h-3.38159l-4.680318-13.9895h0.882154l-4.753831 13.9895zm31.47851 0.245q-2.00935 0-3.70015-0.6615-1.69079-0.6615-2.94051-1.8375-1.24972-1.2005-1.93584-2.793-0.68612-1.617-0.68612-3.528t0.68612-3.5035q0.68612-1.617 1.93584-2.793 1.24972-1.2005 2.94051-1.862 1.6908-0.6615 3.67565-0.6615 2.00935 0 3.67564 0.6615 1.69079 0.6615 2.94051 1.862 1.24972 1.176 1.93584 2.793 0.68612 1.5925 0.68612 3.5035t-0.68612 3.528-1.93584 2.793-2.94051 1.8375q-1.66629 0.6615-3.65114 0.6615zm-0.0245-2.793q1.29872 0 2.40142-0.441 1.10269-0.441 1.91133-1.2495 0.80864-0.833 1.24972-1.911 0.46558-1.1025 0.46558-2.4255t-0.46558-2.401q-0.44108-1.1025-1.24972-1.911-0.80864-0.833-1.91133-1.274-1.1027-0.441-2.40142-0.441-1.29873 0-2.40142 0.441-1.07819 0.441-1.91134 1.274-0.80864 0.8085-1.27422 1.911-0.44108 1.078-0.44108 2.401 0 1.2985 0.44108 2.401 0.46558 1.1025 1.27422 1.9355 0.80864 0.8085 1.91134 1.2495 1.10269 0.441 2.40142 0.441zm12.61973 2.548v-17.15h7.05723q2.2789 0 3.89618 0.735 1.64179 0.735 2.52394 2.107 0.88216 1.372 0.88216 3.2585t-0.88216 3.2585q-0.88215 1.3475-2.52394 2.0825-1.61728 0.7105-3.89618 0.7105h-5.29293l1.42125-1.4455v6.4435zm11.22296 0-4.33726-6.223h3.4061l4.36176 6.223zm-8.03741-6.1005-1.42125-1.519h5.1459q2.10737 0 3.16106-0.9065 1.07819-0.9065 1.07819-2.5235 0-1.6415-1.07819-2.5235-1.05369-0.882-3.16106-0.882h-5.1459l1.42125-1.568zm17.56959 2.058-0.17153-3.773 8.99308-9.3345h3.57762l-7.4738 7.938-1.76431 1.9355zm-2.84249 4.0425v-17.15h3.18555v17.15zm11.95809 0-6.56715-7.8155 2.10737-2.3275 8.18443 10.143zm10.85542 0.245q-2.00936 0-3.84718-0.5635-1.83782-0.588-2.91601-1.4945l1.1027-2.4745q1.02918 0.8085 2.54844 1.3475 1.51927 0.539 3.11205 0.539 1.34773 0 2.18088-0.294 0.83314-0.294 1.22521-0.784 0.39207-0.5145 0.39207-1.1515 0-0.784-0.5636-1.2495-0.5636-0.49-1.47026-0.7595-0.88215-0.294-1.98484-0.539-1.07819-0.245-2.18088-0.5635-1.07819-0.343-1.98485-0.8575-0.88216-0.539-1.44575-1.421-0.5636-0.882-0.5636-2.254 0-1.3965 0.73513-2.548 0.75963-1.176 2.27889-1.862 1.54377-0.7105 3.89619-0.7105 1.54377 0 3.06303 0.392 1.51927 0.392 2.64646 1.127l-1.00467 2.4745q-1.1517-0.686-2.37692-1.0045-1.22521-0.343-2.35241-0.343-1.32323 0-2.15638 0.3185-0.80864 0.3185-1.20071 0.833-0.36756 0.5145-0.36756 1.176 0 0.784 0.53909 1.274 0.5636 0.4655 1.44576 0.735 0.90666 0.2695 2.00935 0.539 1.10269 0.245 2.18088 0.5635 1.10269 0.3185 1.98485 0.833 0.90665 0.5145 1.44575 1.3965 0.5636 0.882 0.5636 2.2295 0 1.372-0.75964 2.548-0.73512 1.1515-2.27889 1.862-1.54377 0.686-3.89618 0.686zm13.33031-0.245v-14.455h-5.68499v-2.695h14.55554v2.695h-5.68499v14.455zm7.98839 0 7.71885-17.15h3.13655l7.74335 17.15h-3.33258l-6.64066-15.4595h1.27422l-6.61616 15.4595zm3.55312-3.969 0.85765-2.499h9.26262l0.85765 2.499zm19.84848 3.969v-14.455h-5.68499v-2.695h14.55554v2.695h-5.68499v14.455zm11.27195 0v-17.15h3.18556v17.15zm15.85428 0.245q-2.00935 0-3.70014-0.6615-1.6908-0.6615-2.94052-1.8375-1.24971-1.2005-1.93583-2.793-0.68612-1.617-0.68612-3.528t0.68612-3.5035q0.68612-1.617 1.93583-2.793 1.24972-1.2005 2.94052-1.862 1.69079-0.6615 3.67564-0.6615 2.00935 0 3.67564 0.6615 1.6908 0.6615 2.94052 1.862 1.24972 1.176 1.93584 2.793 0.68612 1.5925 0.68612 3.5035t-0.68612 3.528-1.93584 2.793-2.94052 1.8375q-1.66629 0.6615-3.65114 0.6615zm-0.0245-2.793q1.29873 0 2.40142-0.441t1.91133-1.2495q0.80865-0.833 1.24972-1.911 0.46558-1.1025 0.46558-2.4255t-0.46558-2.401q-0.44107-1.1025-1.24972-1.911-0.80864-0.833-1.91133-1.274t-2.40142-0.441-2.40142 0.441q-1.07819 0.441-1.91133 1.274-0.80864 0.8085-1.27423 1.911-0.44107 1.078-0.44107 2.401 0 1.2985 0.44107 2.401 0.46559 1.1025 1.27423 1.9355 0.80864 0.8085 1.91133 1.2495t2.40142 0.441zm12.61973 2.548v-17.15h2.62196l10.75738 13.2055h-1.29873v-13.2055h3.16105v17.15h-2.62195l-10.75739-13.2055h1.29873v13.2055z" dominant-baseline="ideographic" fill="#294172" style="white-space:pre" aria-label="WORKSTATION"/>
</svg>
