<?xml version="1.0" encoding="UTF-8"?>
<svg width="968" height="968" viewBox="0 0 968 968" xmlns="http://www.w3.org/2000/svg" xmlns:xlink="http://www.w3.org/1999/xlink"><g class="drawing-elements"><path d="M809.46 126.7q2.4 2.18 4.83 4.33c6.28 5.6 12.32 11.4 18.27 17.35l2.67 2.63a192 192 0 0 1 14.8 16.55q2.75 3.38 5.72 6.56c6.2 6.92 11.7 14.44 17.25 21.88l1.66 2.23c51 68.56 84.6 152.36 91.34 237.77h2v108l-3 1-.15 1.72c-8.1 88.72-49.03 179.85-107.47 246.69a449 449 0 0 0-4.41 5.18 238 238 0 0 1-15.98 17.42 82 82 0 0 0-5.12 5.68c-5.15 6-11.13 11.2-16.94 16.54q-2.71 2.5-5.4 5.02A327 327 0 0 1 789 861l-3.74 3.04c-68.36 54.91-153.4 90.24-240.36 100.57q-1.12.14-2.26.27l-5.7.63c-2.83.28-2.83.28-4.57 1.5-3.64 1.52-7.3 1.25-11.18 1.22h-2.69l-8.8-.03-6.1-.01-16.06-.05-16.39-.04q-16.08-.03-32.15-.1v-2l-2.63-.27c-39.86-4.2-78.6-12.03-116.37-25.73l-3.22-1.17A469 469 0 0 1 177 858l-3.14-2.61a524 524 0 0 1-34.23-31.58l-5.47-5.43A239 239 0 0 1 115 797l-2.8-3.25C48.13 720.15 11.22 623.7 1.96 527.29l-.62-6.6c-.24-2.57-.24-2.57-.84-4.5-.6-2.7-.61-5.2-.6-7.97v-3.52l.01-3.78v-3.88l.03-10.2.02-10.42L0 456h2l-.04-1.68c-.74-55.2 17-113.2 39.04-163.32l1.45-3.31C56.32 256.32 73.25 226.36 94 199l1.38-1.84A566 566 0 0 1 113 175l1.3-1.58a293 293 0 0 1 21.36-23.1l1.97-1.92 1.75-1.7c1.7-1.71 1.7-1.71 3.2-3.91L144 141h2v-2c1.5-1.48 1.5-1.48 3.56-3.19 2.71-2.3 5.29-4.62 7.75-7.19 3.66-3.72 7.67-6.96 11.75-10.21q3.42-2.8 6.7-5.75c4.37-3.83 8.95-7.32 13.61-10.78l2.65-1.97 10.32-7.66c72.6-54.13 163.6-86.32 254.1-88.81l2.24-.07C551.6.8 636.05 17.07 809.46 126.7M411.87 19.19l-2.06.32c-81.07 12.67-161.68 46.95-223.9 100.98a301 301 0 0 1-8.41 6.95c-10.56 8.64-20.22 18.19-29.88 27.81l-1.43 1.43A288 288 0 0 0 130 174l-2.89 3.28a362 362 0 0 0-19.56 24.6q-2.38 3.25-4.77 6.47C90.18 225.44 79.27 243.44 69 262l-1.39 2.49C40.78 313 24.65 366.98 16.7 421.69l-.45 3.06c-2.65 19.52-3.62 38.95-3.55 58.63v3.42c.05 18.9.88 37.45 3.31 56.2l.42 3.39C24.65 610.74 47.25 673.73 81 729l1.56 2.58C90.03 743.9 98.29 755.52 107 767l2.69 3.59c8.42 11.18 17.63 21.68 27.1 31.98q2.75 3.05 5.4 6.18A228 228 0 0 0 167 833.28c2.1 1.8 4.1 3.67 6.11 5.56 6.44 6.01 13.2 11.5 20.2 16.85q2.33 1.8 4.62 3.66C213.3 871.55 230 882.26 247 892l1.87 1.08q5.99 3.44 12.03 6.77 2.1 1.14 4.17 2.3C313.64 929.22 368.12 944.63 423 952l2.04.28c87.69 11.57 181.46-3.01 270.78-46.15q3.7-1.9 7.43-3.77A419 419 0 0 0 762 866l2.04-1.49a403 403 0 0 0 37.05-30.84q3.28-3 6.66-5.9c4.81-4.2 9.31-8.69 13.81-13.2l2.46-2.45c4.33-4.34 8.5-8.75 12.49-13.39q2.81-3.22 5.74-6.36c5.1-5.65 9.76-11.6 14.4-17.63q1.88-2.4 3.78-4.79c10.92-13.82 20.68-28.74 29.57-43.95l1.4-2.4C915.59 682 934.96 637.24 945 590l.42-1.96c4.4-20.58 7.98-41.03 9.58-62.04l.28-3.55c.85-11.71.92-23.4.9-35.14v-3.14c-.13-67.64-14-133.54-42.18-195.17l-1.3-2.87A442 442 0 0 0 858 197l-2.08-2.68a468 468 0 0 0-25.76-29.84 284 284 0 0 1-7.85-8.73 170 170 0 0 0-17.92-17.7q-2.83-2.43-5.63-4.92c-8.6-7.6-17.49-14.69-26.68-21.56q-2.97-2.24-5.9-4.53C748.5 93.42 729.55 81.72 710 71l-2.44-1.36c-46.8-25.93-98.54-42.25-151.31-50.39l-3.87-.6c-21-3.1-41.88-3.98-63.09-3.91h-10.4c-22.5-.07-44.77.96-67.02 4.45" class=""/><path d="M523 25c-1.87 4.88-1.87 4.88-3 6-5.02.91-9.84 1.1-14.94 1.06l-2.07-.01L498 32v-3c8.54-3.45 15.81-4.53 25-4M485 26c.25 6.63.25 6.63-2 10-3.58 1.13-7.28 1.54-11 2l-2.3.3c-3.96.27-6.2-.34-9.2-2.8L458 33c2.87-2.87 6.33-3.51 10.13-4.62l2.22-.7c5.05-1.5 9.39-1.9 14.65-1.68M512.94 40.77c2.12-.15 2.12-.15 6.06.23 3.58 3.4 4.92 6.3 5.15 11.23a63 63 0 0 1-1.52 11.15l-.78 3.7L521 70l-2 1a141 141 0 0 1-5-5v-2l3-2c.84-2.77.84-2.77 1.25-5.94l.52-3.21c.42-2.92.42-2.92-.77-5.85l-5 1-2 10h-2l-3-8h-2c-1.23 5.19-1.53 10.85 0 16 1.96 1.34 1.96 1.34 4 2v3l-12 4v6l2.48-.36 3.27-.39 3.23-.42c3.02.17 3.02.17 5.38 1.95 2.41 3.26 2.17 5.23 1.64 9.22-1.48 3.82-3.1 7.1-6 10-2.16-.02-2.16-.02-4.62-.37l-2.48-.34-1.9-.29c-.36 2.33-.36 2.33 0 5 6.24 7.27 14.52 10.14 23.42 12.7q2.73.77 5.44 1.56 2.74.8 5.5 1.55l2.55.73 2.32.63 1.77.83 1 3c-4.88 3.4-8.89 3.3-14.71 2.64-5.74-1.12-10.95-3.3-16.29-5.64l-2.82-1.22q-3.1-1.36-6.18-2.78l1 13 3.13-1.37c3.23-1.4 6.5-2.56 9.87-3.63.06 2.25.06 2.25-1 5-4.91 3.2-10.23 4.5-16 5-1.8-3.93-2.36-7.3-2.63-11.61l-.26-3.78-.24-3.92-.26-3.98L492 104c-3.68.62-5.58 1.07-8 4-2.12-6.75-2.12-6.75-1-9q.1-2.06.06-4.12L483 91l-10 2-.21 2.26c-3.06 31.8-3.06 31.8-9.79 44.74-1.24-3.72-.57-4.69.75-8.31 4.9-15.26 5.56-31.91 7.25-47.77l.66-6.22.34-2.7.32-2.75L473 70q3.48-1.55 7-3c1.3-3.15 1.1-6.38 1.06-9.75l-.02-2.98L481 52h-6c-1.32 4.96-1.09 9.91-1 15h-2l-5-12h-4v22l-3 1c-2.99-10.27-4.6-19.24-4-30l1.84.36c6.27.97 10.03.16 15.77-2.41 3.85-1.53 6.3-1.66 10.39-.95 2.56 2.38 2.56 2.38 4 6 .07 3.4-.46 6.64-1 10q-.3 2.8-.56 5.63L486 71l6-1-1-7c3.87.54 5.97 1.59 9 4l-.94-7.69-.26-2.18c-.46-3.75-1-7.44-1.8-11.13 5.34-2.5 10.06-4.54 15.94-5.23M475 76a18 18 0 0 0-1.06 7.19L474 87h6c1.27-1.61 1.27-1.61 2-4-.8-3.7-.8-3.7-2-7zm10 1v7h8c1.04-4.62 1.04-4.62 0-9-3.2 0-5.1.74-8 2m10 8v11l2 1 3-1V85zm-7 4c-2.21 1.79-2.21 1.79-2.2 4.16l.07 2.47.06 2.47.07 1.9 3 1 4-2v-9c-2.4-.68-2.4-.68-5-1M307 55c12.29 1.56 12.29 1.56 17 6 2.13 5.21 3.18 10.45 4 16l.3 2.07q.37 2.47.7 4.93c2.52-1.26 2.77-2.29 3.94-4.81 1.43-3 2.92-5.62 5.06-8.19l6 1c-.55 5.07-2.3 9.1-4.62 13.56l-1.08 2.1q-1.64 3.18-3.3 6.34l-1.03 1.96c-5.28 10-5.28 10-7.97 14.04.24 5.96 2.43 10.73 5 16a60 60 0 0 0 12-3l1 5-3.87 2.5-2.18 1.4C336 133 336 133 334 133l3 10c3.5-1.47 6.92-2.96 10.31-4.69C350 137 350 137 352 137c-1.4 3.47-2.9 4.88-6.12 6.75l-2.2 1.3-1.68.95.68 6.74c.27 2.42.27 2.42 1.32 5.26 4.68-1.29 8.28-3.3 12.27-5.98C358 151 358 151 360 151q-4.92-13.38-10.19-26.62l-1-2.55A139 139 0 0 0 343 109h-2l-1.69 3-2.31 3c-3.75.38-3.75.38-7 0 2.5-5.3 5.84-10.09 9-15l13 1a208 208 0 0 1 8.38 21.63 399 399 0 0 0 9.62 25.8c1 2.57 1 2.57 1 4.57l-8.62 2.31-2.45.65A57 57 0 0 0 347 161l1 6c-1.85-.18-1.85-.18-4-1-1.27-2.2-1.27-2.2-2.37-5.14l-1.28-3.3L339 154a1383 1383 0 0 0-4.51-10.97l-.77-1.89-1.57-3.8c-2.82-6.9-5.69-13.73-9.15-20.34a66 66 0 0 0-8.31 9.5c-4.18 5.43-8.77 9.27-15.69 10.31l-3 .19c3.92-8.47 9.26-15.46 15.06-22.72 6.84-8.46 6.84-8.46 8.35-18.96-1.7-13.76-7.74-27.35-12.41-40.32M344 64l12 1-2 6-11-5zM664 75c3 1 3 1 4.02 2.64 3.85 10.52.21 19.28-4.08 29.05l-1.1 2.37c-2.46 5.41-3.46 10-3.84 15.94 8.86-.52 17.34-2.18 26-4.06l7.75-1.66 3.42-.75C699 118 699 118 702 118v8c-5.78 3.49-12 4.4-18.56 5.63l-3.4.65-6.27 1.2q-3.9.74-7.77 1.52a30 30 0 0 0 5.63 9.75l2.14 2.62q4.13 4.85 8.47 9.52c2.74 3.28 4.76 5.76 4.76 10.11-6.14.42-9.08.05-14-4-7.86-7.05-12.9-15.22-17.34-24.68-1.57-3.83-1.57-3.83-4.66-6.32l-.37 1.66c-1.51 5.8-3.76 10.9-6.57 16.15l-1.02 1.92A59 59 0 0 1 636 162c-7.46-1.32-13.3-7.95-18-13.52-1-1.48-1-1.48-1-3.48h17c4.2-8.11 8.27-16.16 11.56-24.69l.8-2c1.96-5.25 1.36-8.16-.36-13.31l2.85-.18c3.28-.48 3.28-.48 4.61-3.06l.99-2.93 1.13-3.2 1.1-3.38 2.27-6.55.98-2.95A43 43 0 0 1 664 75"/><path d="M292 88c4.5-.41 4.5-.41 6.73 1.4 3.84 5.2 5.87 10.08 6.27 16.6l-1 2c-1.87-.27-1.87-.27-4-1-1.19-1.64-1.19-1.64-2.14-3.75l-1.06-2.28-1.05-2.4-1.1-2.4C292 90.33 292 90.33 292 88M600 99q4.06.6 8.13 1.25l2.3.33c5 .82 8.65 1.98 12.57 5.42 1.04 2.45 1.04 2.45 1 5-1 2.4-1 2.4-2.56 4.81l-1.67 2.6A217 217 0 0 1 612 129l14 1 1 5c-6.85 5.2-13.45 6.54-22 7l-3-1c-1.6-3.2-1.4-5.45-1-9 2.98-4.97 7.75-8.67 12.17-12.32 1.92-1.76 3.4-3.5 4.83-5.68v-2l-3.43-1.24-4.45-1.64-2.26-.81c-5.63-2.08-5.63-2.08-7.86-4.31-.12-2.62-.12-2.62 0-5M476 110h4l-1 9 2.08-.44 2.73-.56 2.71-.56C489 117 489 117 492 117c-1.39 3.43-2.65 4.7-6 6.25l-2.12 1.02C482 125 482 125 480 125v6l7-1c-3.17 3.54-5.17 5.59-10 6-1.16-5.48-1.11-10.8-1.06-16.37zM706.45 232.64l3.99 3.45c13.19 11.54 25.82 23.98 36.22 38.11q2.21 2.94 4.5 5.84c54.65 69.7 77.9 158.49 68 246.2-7.3 58.7-30.67 116.84-67.8 163.06q-1.79 2.24-3.52 4.5c-4.69 6.04-9.82 11.6-15.04 17.18a159 159 0 0 0-6.11 6.96C721 724.48 714.42 730.2 708 736l-1.76 1.6c-61.26 55-147.96 86.49-230.24 83.4l-2.9-.1A339 339 0 0 1 387 806l-3.19-1c-60.82-19.32-119.3-56.17-158.81-107l-2.64-3.16c-55.26-66.3-80.86-154.59-73.71-240.02 5.03-54.1 23.2-107.53 53.35-152.82l1.37-2.07A284 284 0 0 1 221 276l2.1-2.63C236.9 256.2 252.5 239.42 270 226l4.04-3.22C290.72 209.49 308.28 198.2 327 188l2.05-1.12c87.13-47.15 199.27-51.23 377.4 45.76M453 154c-5.05 1.06-10.13 1.77-15.23 2.5-2.67.21-2.67.21-3.77 1.5l-2.81-.12c-3.72.14-4.32.96-7.19 3.12-2.5.95-2.5.95-5.12 1.69l-2.64.76C414 164 414 164 412 164l-.62 1.88c-1.92 2.95-4.1 3.08-7.38 4.12l-1 3-2.25-.06c-2.45.05-4.41.37-6.75 1.06v2l-6 2v3h-5l-.87 3.44L381 188l-2 1-1 3-1.9.41c-2.28.4-2.28.4-3.48 2.55l-1.18 2.41A25 25 0 0 1 366 205l-1.06 2.13C364 209 364 209 362 210v4l-1.83.71c-2.7 1.6-3.5 3.14-4.92 5.91l-1.3 2.48-.95 1.9h-2l-.81 2.19C349 230 349 230 347.38 232.63c-1.63 2.35-1.63 2.35-1.38 5.37h-2v3h-2l-1.81 4-1.02 2.25a128 128 0 0 0-6.8 21l-.66 2.79a89 89 0 0 0-2.47 17.88C329 291 329 291 327 293c-.47 2.72-.84 5.38-1.12 8.13l-.27 2.28L325 309l-6-3c-1.1 2.79-1.1 2.79-1 5l-5.31-6.19-1.64-1.9q-4.08-4.76-8.12-9.56l-1.46-1.74-2.73-3.26c-2.77-3.3-5.66-6.35-8.74-9.35-1.25 3.52-.76 5.24.77 8.59a88 88 0 0 1 4.86 15.97l.63 2.9c9.7 45.28-9.21 84.25-25.44 125.75q-4.34 11.1-8.64 22.24l-1.2 3.07-4.72 12.22a4442 4442 0 0 1-13.1 33.51C217.74 563.72 217.74 563.72 219 628l.47 1.97c4.42 17.76 13.79 33.01 25.09 47.21a440 440 0 0 1 5.28 6.84c4.8 6.3 9.7 12.5 14.6 18.72q4.8 6.1 9.56 12.26l2-2c-.18-2.08-.18-2.08-.81-4.5-8.88-44 13.49-85.93 30.25-125.31 5.07-11.92 9.9-23.93 14.68-35.96q4.77-11.98 9.57-23.94l11.51-28.8q3.3-8.26 6.64-16.52c12.33-30.45 19.24-57.15 15.16-89.97l.69 1.75c1.75 3 3.33 4.45 6.31 6.25 2.68 0 4.94-.17 7.56-.56 6.87-.74 11.39.13 17.68 3.22 5.3 2.58 11.05 3.94 16.76 5.34l1 4 5 1v2c4.08 2.16 6.4 3.37 10.98 2.3q4.08-1.49 8.02-3.3l-2.06 2.06-1.4 1.42q-1.5 1.48-3.04 2.92c-9.99 9.48-17.75 20.84-24.47 32.77q-1.44 2.55-2.9 5.06c-5.65 10.05-10.08 20.64-14.56 31.25A145 145 0 0 1 380 503v2c3.42-.6 5.16-1.8 7.75-4.06 26.3-20.95 61.78-24.15 94.01-24l18.54.05 20.04.04q28.5.06 56.98.14 15.76.06 31.53.07l19.85.06q6.22.02 12.45.02l5.7.02c28.34.2 53.04-3.45 75.15-22.34-4.11 12.34-13.88 20.57-24.96 26.62-15.32 7.6-31.3 9.42-48.18 9.91l-4.15.13c-14.14.42-28.28.64-42.42.84l-27.6.4-23.6.35-2.12.03-23.06.35-2.06.03-8.14.13q-12.35.2-24.7.35-6.8.08-13.61.19l-6.16.07c-31.9.31-64.5 4.3-88.24 27.6l-2.46 2.36C368.34 536.79 361 553.26 354 569l-1.22 2.7a1516 1516 0 0 0-19.23 45.1q-3.23 7.86-6.5 15.68c-8.31 20-16.54 40.04-24.6 60.14l-1.05 2.59-1.9 4.75a95 95 0 0 1-4.28 9.37c-1.6 2.69-1.6 2.69-.22 5.67l1.8-1.69c15.58-13.7 35.37-19.73 55.78-21.43l3.01-.26c11.34-.88 22.65-.85 34.02-.78l7.02.02q7.42.01 14.86.05 17.62.06 35.25.07h7.97a7119 7119 0 0 0 85.22-.33q6.84-.03 13.68-.11l4.9-.04c33.34-.14 63.53-9.7 87.52-33.51A87 87 0 0 0 651 651q.59-.75 1.19-1.5c12.63-16.12 21.18-34.04 29.67-52.56A566 566 0 0 1 692 576c-3.94.6-6.9 1.83-10.4 3.73l-3.12 1.68-3.3 1.78c-15.4 8.13-30.05 13.63-47.18 16.81l-2.7.51c-20.05 2.97-41.03 1.43-61.23 1.14q-15.42-.22-30.84-.38l-3.22-.04q-34.63-.38-69.27-.4l-12.5-.04a3989 3989 0 0 0-20.18-.03c-27.55-.11-55.52 2.1-77.06 21.24 1.24-7.6 8.82-14.53 14.56-19.28 19.52-13.77 41.71-15.88 64.91-16.31l5.07-.12c19.5-.41 39.01-.57 58.52-.74q16.35-.14 32.68-.3l29.2-.3c73.6 2.53 73.6 2.53 136.06-29.95 22.3-24.15 32.99-59.27 45.03-89.17q6.41-15.87 12.9-31.7 3.72-9.08 7.4-18.15l7.48-18.27 7.15-17.42 3.12-7.63.95-2.28q1.06-2.66 1.97-5.38l-1-2-1.1 1.29c-14.36 15.54-39.47 22.02-60.03 22.93-11.1.37-22.23.25-33.34.19q-7.28-.03-14.54-.04-13.73-.01-27.44-.08-15.64-.07-31.29-.09-32.13-.06-64.26-.2l3.75-1.94 2.1-1.09c2.05-.93 3.96-1.5 6.15-1.97l.33-2.12c1-5.97 2.34-11.32 4.67-16.88l1.88-4.75q2.89-7.16 5.9-14.29 1.71-4.18 3.35-8.4c1.34-3.4 2.83-6.5 4.87-9.56h-2l.66-1.76c1.64-4.61 2.57-8.29 2.34-13.24l.48-1.93c.85-3.41.67-6.89.64-10.38l-.01-2.43C579.93 278 577.76 261.64 570 245l-2-4.48-2.12-4.7-1.03-2.3A91 91 0 0 0 562 228l-3-1-.81-2.06c-1.67-4.13-4.19-7.65-7.19-10.94h-2v-2a141 141 0 0 0-5-5l-2.19-2.31c-1.64-1.92-1.64-1.92-3.81-1.69l-1-3h-2l-1-3h-2v-2l-2.2-1.14c-8.17-4.32-8.17-4.32-11.74-7.36-3.74-3.06-7.7-4.93-12.04-7.02a123 123 0 0 1-7.64-4.1c-7.78-4.54-7.78-4.54-16.38-6.38v-2a167 167 0 0 0-4-3l-1-2-4 1 1-4 1 2h3v-3h-2v-2h-5v-3c-6.37-1.42-11.68-.36-18 1m26 2v2l3-1zm-85 15-1 2 4-1zm39 577-1.54 1.6c-6.31 6.49-6.31 6.49-9.9 8.71-2.84 1.5-2.84 1.5-3.56 4.69l1 2c3.76-.51 6.67-1.22 10-3l.08 2.92.42 15.33q.08 3.33.18 6.65l.05 2.1c-.16 3.29-.16 3.29 1.27 6h5v-46zm20.13 7.13c-1.94 4.94-2.99 10-1.43 15.19 1.82 3.9 3.58 6.39 7.3 8.68 4.9 1.28 8.9 1.44 13.63-.44L475 777l-1.31 4.31-.74 2.43A11.4 11.4 0 0 1 469 789c-2.75.56-2.75.56-6 0a47 47 0 0 1-5.29-4.79c-1.67-1.48-1.67-1.48-3.92-.9L452 784c.86 4.04 1.44 6.45 4.44 9.38 4.37 2.77 8.48 3.17 13.56 2.62 5.42-2.34 8.53-6.37 10.75-11.75 2.44-8.02 3.17-19.35-.5-27.06-3.7-5.3-3.7-5.3-9.25-8.19-7.43-.88-12.75.32-17.87 6.13M493 753c-5.93 8.19-5.7 17.3-5 27 1.05 6.1 3.09 10.05 8 14 4 2.44 7.06 2.18 11.6 1.6 3.64-.91 5.2-2.6 7.4-5.6 4.92-8.43 5.42-19.1 3.47-28.58-1.63-4.64-4.03-8.96-8.33-11.53-6.24-2.6-12.2-1.38-17.14 3.11m35.19.81c-1.47 2.7-1.84 5.15-2.19 8.19l4 2 1.1-1.71c4.1-5.98 4.1-5.98 7.96-7.48 3.62.23 5.28.69 7.94 3.19.67 3.94.38 6.22-1.37 9.81-3.65 4.86-8.29 8.97-12.63 13.19-4 3.87-4 3.87-7.31 8.31L524 792l2 3c3 .42 3 .42 6.54.3l3.94-.04 4.14-.07 4.17-.04L555 795v-6l-20-1 3.36-3.25 4.39-4.31 2.21-2.14c5.09-5.02 9.51-9.53 10.54-16.86-.61-4.2-1.74-6.24-4.5-9.44-7.25-5.06-16.5-4.5-22.81 1.81M204.06 167.63l2.66-.03 2.28.4 2 3-.84 1.57-1.1 2.12-1.09 2.07c-1.1 2.52-1.8 4.48-1.97 7.24 1.32 2.44 1.32 2.44 3.31 4.63l1.93 2.28L213 193l2 3c2.56-.38 3.72-.68 5.46-2.66l1.35-1.97c1.54-1.9 1.54-1.9 3.19-3.37 3.8 0 6.43.8 10 2-.94 2.74-1.81 4.78-3.73 6.98-3.3 4.38-5.47 9.22-7.83 14.15l-2.88 5.94-1.27 2.65A16 16 0 0 1 215 225c-2.41.1-2.41.1-5.06-.25l-2.66-.33C205 224 205 224 203 223c1.36-4.08 3.38-6.97 6.07-10.25 1.1-1.7 1.1-1.7.81-3.7-1.14-2.64-2.65-4.22-4.7-6.24l-2.07-2.1c-2.2-1.78-3.32-2.53-6.11-2.71-2.32.92-4.4 2.08-6.59 3.29-3.32.98-5.28 0-8.41-1.29 2.6-7.61 5.69-14.63 9.63-21.62l1.16-2.09c5.01-8.72 5.01-8.72 11.27-8.66M829 169h2c3.38 5.12 5.7 9.73 5 16-2.63 7.58-9.37 11.85-15.7 16.2-3.37 2.3-6.1 4.26-8.3 7.8l2.13.56c4 2 6.53 4.62 8.87 8.44 1.07 5.88-.93 10.1-4 15-2.59 3.51-5.16 4.77-9.43 5.7-5.5.65-11.04.44-16.57.3l-4-8c-5.61 1.46-9.63 4.27-14.25 7.63l-2.28 1.62a231 231 0 0 0-12.03 9.25c-6.37 5.2-12.45 7.79-20.44 9.5 2.47-4.7 5.8-8.07 9.53-11.76l1.92-1.92 4-3.98a1900 1900 0 0 0 10.02-9.98l1.85-1.84 1.72-1.71 1.52-1.5C772 225 772 225 775 223c-.53-3.82-1.5-6.06-4-9l2-3c2.92 1.07 4.78 1.78 7 4 4.12-.21 6.73-3 9.75-5.56l2.98-2.5L795 205l-1-2.31c-1-2.69-1-2.69-1-5.69l2.19 1.63c2.63 1.64 2.63 1.64 5 .9 4.15-2.26 7.29-5.4 10.68-8.66l2.07-1.93c9.45-8.92 9.45-8.92 16.06-19.94m-29.19 49.5-2.73 2.53L795 223l1 3c4.72 1.47 8.46.6 13-1 2.89-1.5 2.89-1.5 5-3a20 20 0 0 0-6-8c-4.14 0-5.2 1.72-8.19 4.5M779 178h2c-.39 11.08-4.56 22.43-12.29 30.48A74 74 0 0 1 763 213c1.15-11.94 8.13-25.98 16-35M155.25 212.81c5.1 2.14 10.54 4.6 14.75 8.19 0 4 0 4-1.64 6.27-2.36 1.73-2.36 1.73-5.1 1.9-6.8-1.22-12.57-2.8-17.26-8.17-.7-2.2-.7-2.2-1-4 5.22-5.76 5.22-5.76 10.25-4.19M193 237a40 40 0 0 1 6 10c-.31 2.38-.31 2.38-1 4-6.27 2-11.93.98-18-1v-2c5.15-.09 9.92.15 15 1l-1-3.75c-.8-3-1-5.05-1-8.25M109 295c6.88.88 6.88.88 8 2 .14 4.33.04 8.67 0 13 10.2 4.86 20.5 9.38 30.94 13.69 15.97 6.59 15.97 6.59 23.06 10.31l-1 3a89 89 0 0 1-16.12-3.18l-2.26-.65-4.68-1.35q-3.55-1.04-7.1-2.05A428 428 0 0 1 118 323v12l5.63.88c4.29.7 8.3 1.54 12.37 3.12l-1 2a64 64 0 0 1-15.81-1.56l-2.47-.52c-8.95-2-17.3-5.34-25.72-8.92l1-2q2.06-.05 4.13-.06l2.32-.04c2.91.11 5.68.57 8.55 1.1l-.25-2.15a839 839 0 0 1-1-9.79l-.4-3.38c-.68-7.31-.15-12.32 3.65-18.68M89.1 300.02c3.56 1.84 4.63 5.35 5.9 8.98.6 4.41.34 6.37-1.75 10.31-2.06 2.47-3.28 3.63-6.25 4.69-3-2-3-2-3.67-4.21-.37-3.13-.57-6.2-.64-9.35l-.12-3.38c.43-3.06.43-3.06 2.2-5.52C87 300 87 300 89.11 300.02M899 312c-1.48 4.6-5.26 6.31-9.19 8.63l-6.58 4a369 369 0 0 0-10.48 6.75l-1.88 1.22c-3.29 2.19-6.33 4.34-8.87 7.4.14 2.7.14 2.7 1 5 5.6-.42 9.2-2 13.63-5.31l1.65-1.19c7.09-4.7 7.09-4.7 11.72-11.5 1 2 1 2 .38 4.38-1.63 3.1-3.62 4.51-6.38 6.62v2c4.64.32 7.3-.12 11-3l.78-1.98c1.78-2.95 3.7-3.13 6.97-4.02l3.5-.98L910 329l3.97-1.14q5-1.45 10.03-2.86l3 4c-1.87 4.59-5.26 6.93-9 10-2.07 2.07-2.64 3.14-3 6l2.08.92c7.36 3.42 7.36 3.42 10.04 6.58.94 2.67 1.12 4.69.88 7.5-5.73 2.87-10.77 3.62-17.12 4.06-7.65.55-7.65.55-14.88 2.94-2.67.5-5.3.73-8 1l-.3 1.83c-.67 3.62-1.33 6.57-3.26 9.73-3.82 2.25-7.2 2.18-11.44 1.44-3.4-1.16-6.69-2.47-9.98-3.9-3.58-1.3-6.28-1.55-9.96-.6-2.71.66-5.28.56-8.06.5l-.37 2.38c-1.63 2.62-1.63 2.62-3.67 3.3q-2.6.46-5.23.85a39 39 0 0 0-7.48 2.16c-3.8 1.3-6.38 1.84-10.25.31-3.25-3.33-4.31-6.27-4.62-10.81.2-5.88 3-9.73 6.62-14.19 4.13.33 7.1 1.5 10.69 3.44 5.29 2.78 10.42 3.81 16.31 4.56a76 76 0 0 0-3.12-8.44c-1.12-3.26-1.01-6.14-.88-9.56 18.31 11.68 18.31 11.68 21.69 19.44A21 21 0 0 0 867 375c3.27 1.35 3.27 1.35 7 1l4.94.06L883 376c-1.34-8.67-12.1-16.13-18.48-21.62A34 34 0 0 1 856 343v-3c1.91-1.7 1.91-1.7 4.63-3.56l3.05-2.14 1.65-1.13a258 258 0 0 0 4.96-3.56 338 338 0 0 1 19.46-13.24l2.1-1.32c4.9-3.05 4.9-3.05 7.15-3.05m-6 33.75-3.12 1.55c-2.81 1.66-4.8 3.2-6.88 5.7-.33 2.67-.33 2.67 0 5l-3-1v6c6.4-.29 10.7-1.33 16-5l2-3 3-1 .44 2.94c.24 2.92.24 2.92 1.56 4.06 7.17.63 14.01-.51 21-2-.07-3.01-.41-5.23-2.27-7.66-4.14-3.94-7.88-5.19-13.5-5.92C906 345 906 345 903 343c-4.34 0-6.18.82-10 2.75M875 347l2 4c2.33.42 2.33.42 5 0 2.34-2.4 2.34-2.4 4-5-4-1.6-7.05-.3-11 1m-56 18c-2.62 4.48-2.19 8.07-1 13 1.4 3.2 1.4 3.2 4 5 4.63 0 7.59-.86 11-4-.38-2.4-.63-3.67-2.49-5.3l-1.82-1.14c-3.24-2.13-5.31-4.48-7.69-7.56zM78.48 331.13c3.45 1.01 3.45 1.01 6.84.82L88 332a46 46 0 0 1 4 6c4.1 4 8.21 5.25 13.59 6.7l2.5.7q3.91 1.1 7.85 2.16l7.84 2.18 4.87 1.35c11.14 3.1 11.14 3.1 14.35 7.91-.4 2.81-.4 2.81-1.25 6l-.83 3.19C140 371 140 371 138 374c-3.12.19-3.12.19-6 0v-9l-4.19-1.44-2.35-.8A65 65 0 0 0 118 361q1.32 3.1 2.69 6.19l1.5 3.48c1.89 3.48 3.9 5.68 6.81 8.33 2.29 2.47 3.77 4.2 4.69 7.44-1.28 4.75-5.65 7.29-9.67 9.8-2.43.92-3.61.62-6.02-.24a101 101 0 0 1 13-10c-.97-2.49-.97-2.49-3-5q-1.91-.46-3.87-.94c-2.14-.66-2.14-.66-4.13-2.06a65 65 0 0 1-3.7-10.55c-1.83-4.85-4.43-7.58-9.11-9.76L105 357l-6 8-4-1c-1.35-2.41-2.27-4.88-3.27-7.46-3.79-5.56-11.7-7.39-17.88-9.45l-4.54-1.56-7.07-2.4q-3.45-1.16-6.89-2.35l-2.14-.71C49.57 338.8 48.2 338.3 46 335c10.54-9.31 19.57-7.77 32.48-3.87M851 329v3c-2.74 2.37-5.9 4.13-9 6l-2.53 1.54c-4.54 2.64-4.54 2.64-6.47 3.46l-2-1 7.19-4.81 2.04-1.37c3.54-2.37 7.1-4.67 10.77-6.82" class=""/><path d="M76.06 367.81h2.88c6.92.05 6.92.05 8.06 1.19.35 3 .57 5.1 0 8-3.05 3.5-4.86 4.65-9.25 6-8.48 0-15.17-3.19-21.62-8.56C55 373 55 373 55 370a83 83 0 0 1 21.06-2.19M85 435c2.67 1.97 3.75 3.35 4.94 6.44.1 4.2-1.91 6.46-4.69 9.44-3.44 1.72-5.61 1.16-9.25.12-2.69-2.62-4.88-5.15-5-9 1.18-3.1 2.16-5.31 4.75-7.44 3.39-.84 5.88-.4 9.25.44M886 434c2.94 2.28 4.62 4.04 6 7.5 0 4.15-2 6.43-4.75 9.38-3.44 1.72-5.61 1.16-9.25.12-2.9-2.6-3.86-4.17-4.5-8 .62-3.7 1.92-5.34 4.5-8 2.89-1.44 4.8-1.38 8-1M48 491c5.86.44 9.51 2.1 14.38 5.31l2.07 1.34a501 501 0 0 1 33.23 23.7c2.3 1.8 2.3 1.8 5.32 2.65l-1-3c-1.38-9.94-1.1-20-1-30h5l4 49a156 156 0 0 1-19.47 5.45L88 546c.61 6.42 1.66 12.58 3.06 18.88l1.1 4.99.49 2.19C93 574 93 574 93 577l2.17-.59c7.56-1.97 15.09-3.35 22.83-4.41l1 6-3.9.45a295 295 0 0 0-35.18 6.48C73.93 586.4 68.15 587.47 62 588l-2-6 1.96-.26 8.79-1.18 3.08-.4 2.97-.4 2.73-.37c2.2-.35 4.32-.8 6.47-1.39-.6-6.27-1.61-12.25-3.06-18.37l-1.1-4.72-.49-2.06C81 551 81 551 81 548l-2.25.46-10.06 2.04-3.54.72-3.39.69-3.12.63C56 553 56 553 53 553l-1-7 27.69-6.3 10.1-2.3 3.17-.72 2.97-.67 2.6-.6c2.54-.42 4.9-.48 7.47-.41v-2l-2.4-.6c-4.9-1.9-8.9-4.7-13.22-7.65l-2.76-1.86c-9-6.1-17.9-12.33-26.78-18.6A259 259 0 0 0 56 501c-.22 12.35.43 24.67 1 37h-6c-1.75-15.66-3.27-31.22-3-47M918.56 491.94l2.44.06c.32 24.95.32 24.95-2 36-10.32.12-20.56-.13-30.87-.8l-6.48-.4c-19.02-1.17-19.02-1.17-20.65-2.8q-.06-3 0-6c11.83-.3 23.5.36 35.29 1.29 5.59.44 11.1.84 16.71.71l1.2-17.31.26-3.69.24-3.4c.41-3.58.41-3.58 3.86-3.66M901 538c6.53 4.45 11.46 10.05 13 18 .62 7.7.85 14.65-4 21-6.6 6.76-14.52 9.6-23.89 10.1A47.3 47.3 0 0 1 858 576.56c-4.6-5.88-4.75-12.35-4-19.56 1.75-8.16 5.26-14.03 12-19 10.58-6.49 24.26-5.77 35 0m-37 10c-4 5.72-4.6 11.16-4 18 1.28 6.08 3.7 9.53 9 13 5.59 2 10.64 2.34 16.5 2.31l2.47.05c6.06 0 11.02-.77 15.77-4.86 4.78-6.32 4.94-11.77 4.26-19.5-1.53-5.86-4.93-9.45-9.86-12.81-10.24-5.69-25.79-4.8-34.14 3.81M122 584a7728 7728 0 0 1 9.38 28.61l.79 2.4c1 3.1 1.83 5.71 1.83 8.99h-5a150 150 0 0 1-7.75-20.56l-.96-3.06L118 593a93 93 0 0 0-17 5l.5 1.65c3.07 10.06 6.12 20.1 8.5 30.35h-6l-5.8-16.5-1.23-3.52-1.14-3.25C95 604 95 604 95 601l-1.62.46-7.25 2.04-2.56.72-2.44.69-2.25.63C77 606 77 606 75 606c2.4 8.77 5.06 17.38 8.07 25.96l.76 2.2.68 1.96C85 638 85 638 85 642l-5 1a431 431 0 0 1-11-30l-.95-2.91-.86-2.72-.77-2.4C66 603 66 603 67 601c2.03-.89 2.03-.89 4.73-1.79l3.06-1.03 3.32-1.1 3.4-1.13q3.57-1.2 7.14-2.36 5.46-1.81 10.92-3.64l6.92-2.3 3.3-1.1 3.09-1.02 2.71-.9C118 584 118 584 122 584M884 593c7.12 5.07 12.14 10.3 14 19 1.16 8.61-.67 15.72-5.29 23.04-4.85 6.35-11.26 8.83-19.02 9.9-9.27.53-18.51-1.95-25.69-7.94-6.14-5.88-10.05-11.61-10.44-20.31A30.6 30.6 0 0 1 847 595c10.62-7.8 25.52-9.09 37-2m-35.81 10-1.77 2.06c-3.43 4.69-2.86 10.4-2.42 15.94 2.35 6.67 7.07 10.9 13.2 14.15 7.56 3.56 15.6 4.02 23.61 1.79 4.76-2.9 7.74-6.5 10.57-11.25 1.55-6.68 1.4-12.86-2.06-18.87-4.04-5.55-9.5-9.55-16.32-10.82-9.9-.77-18.01-1.1-24.81 7M828 637a835 835 0 0 1 43.25 20.6q4.37 2.22 8.75 4.4l-2 6-7.94-3.31-2.23-.94A199 199 0 0 0 852 658l-5.37 11.19-1.54 3.2-1.49 3.09-1.36 2.84A134 134 0 0 0 839 686l2.41.74c4.44 1.56 8.68 3.45 12.97 5.38l2.51 1.13L863 696l-1 6c-4.2-.55-7.53-1.5-11.32-3.37l-3.03-1.48-3.21-1.59-6.7-3.27-3.4-1.67q-4.79-2.32-9.62-4.53l-2.93-1.36q-2.74-1.27-5.5-2.52l-2.48-1.15-2.17-1C810 679 810 679 809 676l2-4 24 10 1-5q.96-2.4 2.07-4.72l1.22-2.63 3.78-8.06 1.12-2.38c1.04-2.44 1.04-2.44.81-6.21l-19-9c1-5 1-5 2-7M99 645l2 5-2.37 1.31c-2.85 1.58-2.85 1.58-4.63 4.69.14 3.75.56 6.27 2.5 9.5 3.88 2.33 7.28 1.47 11.5.5a274 274 0 0 0 16.25-6.44l4.38-1.81 8-3.35L140 653l2.76-1.19C145 651 145 651 148 651l1 6a7817 7817 0 0 1-28.22 12.3l-2.35 1.03c-6.66 2.88-13.04 5.48-20.43 4.67-5.05-2.32-7.68-5.65-10.14-10.5-1.48-4.33-1.25-8.16.14-12.5 2.8-3.64 6.16-7 11-7M156 664l1 5c-42.07 28-42.07 28-51 28l-2-5c7.32-4.46 14.75-8.7 22.25-12.87 8.73-4.85 8.73-4.85 17.38-9.82l1.97-1.14 4.92-2.91C153 664 153 664 156 664M817.27 688.02l1.73.98c-.69 1.94-.69 1.94-2 4-2.38.8-4.62.98-7.12 1.1-4.63.3-8.09.79-11.59 4.2-3.25 4.28-5.28 8.87-5.3 14.29 1.1 7.29 4.48 12.62 10.23 17.17 6.09 4.2 12.2 7.32 19.78 7.24 4.48-.84 7.84-2.43 10.88-5.87 3.57-5.27 5.07-9.71 4.12-16.13a95 95 0 0 0-4-10c3-2 3-2 7-2 3.78 7.29 6.56 14.88 4.06 23.06-3.16 7.1-8.9 13.26-16.07 16.29-8.45 2.77-15.51 1.16-23.48-2.5-8.06-4.27-15.24-9.77-18.13-18.77-1.48-8.04-.7-15.1 3.62-22.08 5.97-8.5 15.51-15.83 26.27-10.98M173 692c2.09 3.44 2.09 3.44 1.7 5.88a30 30 0 0 1-2.97 6.22l-1.42 2.4-1.56 2.56-1.6 2.67a460 460 0 0 1-15.21 23.01c-3.47 5-6.75 10.09-9.94 15.26l-5-5c1.78-5.01 4.64-8.9 7.73-13.18 1.55-2.75 1.55-2.75.8-5.68a82 82 0 0 0-6.66-11.01l-1.41-2.1L134 708c-6.17.7-6.17.7-12.19 2.13-5.46 1.25-5.46 1.25-8.81-.13-1.13-2.05-1.13-2.05-2-4a987 987 0 0 1 34.78-9.22l7.33-1.82 6.92-1.72A46 46 0 0 1 173 692m-11.88 6.53-3.54.96-3.7 1.01-3.74 1.01L141 704c-.69 1.83-.69 1.83-1 4a77 77 0 0 0 4.44 7.25l1.31 1.97q1.61 2.4 3.25 4.78c2.34-.39 3.68-.68 5.38-2.38l1.24-1.75 1.4-1.95 1.42-2.04 1.4-1.98q1.4-1.96 2.78-3.94a223 223 0 0 1 2.84-3.94c2.63-3.18 2.63-3.18 3.54-7.02-2.79 0-5.19.8-7.88 1.53M189 716c2.56 2 2.56 2 5 5-.3 7.47-2.56 14.72-4.37 21.94A354 354 0 0 0 183 775l2.27-2.09 12.37-11.33q6.54-5.96 13.3-11.64l2.71-2.29C216 746 216 746 219 746c.72 1.74.72 1.74 1 4-1.41 2-1.41 2-3.56 4.08l-2.36 2.33-2.52 2.4-2.41 2.37a300 300 0 0 1-13.45 12.33 96 96 0 0 0-5.76 5.55A149 149 0 0 1 179 789c-3.16-1.37-4-1.99-6-5 .1-2.12.1-2.12.62-4.65l.61-2.97a953 953 0 0 1 5.39-22.13c2.03-8.07 3.85-15.91 4.38-24.25l-1.75 1.78q-3.3 3.36-6.62 6.7l-4.2 4.26A209 209 0 0 1 152 760l-5-3c4.57-5.74 9.8-10.6 15.21-15.54q6.4-5.86 12.73-11.84l2.15-2.01q6.05-5.7 11.91-11.61M785 733c-.81 1.94-.81 1.94-2 4l-3 1-2-1c-5.2-.63-8.01-.41-12.31 2.69-3.53 2.97-6.3 5.5-6.96 10.26-.17 3.37.02 5.64 1.77 8.55l1.5 1.5c7.18-.33 11.82-2.77 17.88-6.5l7.28-4.4c4.53-2.72 8.63-2.64 13.84-2.1 4.68 1.9 6.41 4.29 8.44 8.75 1.65 4.76 2.3 8.46.56 13.25-3.9 7.86-9.72 13.08-17.56 16.88-5.11 1.67-9.23 1.76-14.25-.13-3.14-1.72-4.15-2.4-5.19-5.75l1-1 7 1c6.83.6 10.98-.98 16.63-4.75 4.04-3.83 6.08-7.35 6.93-12.87-.34-3.5-.34-3.5-2.56-6.38-3.34-2.23-4.83-2.24-8.7-1.64-4.45 1.24-8.22 3.73-12.11 6.14l-5.02 3.03-2.21 1.36c-4.17 2.36-8.28 2.61-12.96 2.11-4.12-1.78-6.8-4.08-9-8-.95-6.11-.53-11.76 2.6-17.15 7.59-10.07 18.68-15.26 30.4-8.85M471 755c2.6 2.25 3 3.98 3.88 7.31.15 4.58-.72 6.7-2.88 10.69-2.85 1.43-4.83 1.31-8 1-2.7-1.8-4.54-3.08-6-6-.58-7.09-.58-7.09 1.88-10.94 3.78-3.67 6.05-3.22 11.12-2.06M504 754.19c4.22 1.14 4.22 1.14 6 3.81 3.7 8.76 3.13 19.53-.15 28.33C509 788 509 788 507 790c-3.37.44-3.37.44-7 0-3.78-3.68-5.1-7-5.2-12.2l-.05-5.05-.06-2.53c-.04-5.51.62-9.37 3.31-14.22 3-2 3-2 6-1.81M240.38 766.5c6.92 3.87 12.16 8.83 14.62 16.5.27 2.79.27 2.79.25 5.63l.02 2.85C255 794 255 794 253 797l-5-2 .69-2.94c.64-4.82-.35-8.81-2.69-13.06-3.91-4.36-7.63-7.7-13.64-8.24-7.96-.2-13.29.54-19.26 5.97-5.33 5.64-8.56 11.51-9.66 19.2.35 5.87 3.1 11.61 7.24 15.75 5.48 4.13 11.33 5.91 18.2 5.77 2.53-.54 3.51-1.29 5.25-3.2 2.08-2.92 2.08-2.92 1.73-5.27-1.1-2.54-2.38-3.38-4.67-4.92A32 32 0 0 1 223 796c2.05-.8 2.05-.8 5-1a63 63 0 0 1 7.13 4.81l3.69 2.77L242 805l3 2c-.4 6.5-5.37 11.66-9.87 16-3.91 2.5-6.69 2.82-11.13 2-10.86-2.84-19.24-8.24-25-18-3.39-6.95-3.67-12.97-1.24-20.29 4.2-10.3 10.56-17.08 20.64-21.84 7.41-2.47 14.97-1.61 21.97 1.63M713 780c3.78 4.57 7.17 9.4 10.56 14.25l1.86 2.66q6 8.6 11.7 17.4l1.33 2.04A251 251 0 0 1 746 829l-7 3-1.07-1.84a194 194 0 0 0-10.61-16.13C726 812 726 812 726 810c-6.05 2.31-11.1 5.54-16.44 9.19l-2.5 1.7q-3.04 2.04-6.06 4.11c.5 5.07 2.13 8.3 4.88 12.56l2.11 3.32q1.88 2.93 3.77 5.83C713 849 713 849 713 852l-5 1a246 246 0 0 1-13.75-19.06l-3.65-5.52-1.82-2.75C684.6 819.4 680.3 813.2 676 807c1.37-3.16 1.99-4 5-6l2.05 2.89 4.04 5.7c2.54 3.55 5.14 7.03 7.91 10.41 4.97-1.64 8.9-4.52 13.13-7.5l4.25-2.97 1.89-1.32q2.35-1.63 4.73-3.21c-.47-5.17-3.16-8.57-6.06-12.69-4.94-7.06-4.94-7.06-4.94-9.31 2.5-1.62 2.5-1.62 5-3M299 810l5 1c-.53 5.76-2.84 10.17-5.44 15.23l-1.33 2.64q-2.1 4.17-4.23 8.32l-6.86 13.53-1.2 2.36-1.07 2.08c-.99 2-.99 2-1.87 4.84l2.21.37c4.54 1.02 8.42 3.2 12.54 5.32l2.65 1.28c6.35 3.26 6.35 3.26 7.68 7.36L307 877c-11.88-4.37-22.9-9.94-34-16 1.53-5.12 3.73-9.67 6.18-14.4l1.23-2.4 2.58-5.02a2341 2341 0 0 0 6.44-12.52l1.16-2.27c2.57-4.95 5.38-9.7 8.41-14.39M676 820c1 2.13 1 2.13 1 4l-1 2c-2.6-.5-4.32-1.19-6.62-2.56-5.49-2.34-10.46-2.46-16.1-.5-4.8 2.25-8.47 4.42-11.28 9.06a31.5 31.5 0 0 0 1.63 23.56c3.34 5.94 7.03 9.74 13.37 12.44 9.06 1.37 15.65-1.2 22.96-6.39 2.24-1.91 3.83-3.72 4.5-6.63.16-3.33-.24-5.62-1.96-8.48L681 845c-5.54.57-10.04 2.63-15 5-3-3.75-3-3.75-3-6l21-9c3.08 3.08 4.57 5.9 6.25 9.81l1.64 3.65c1.21 3.86 1.33 5.7.11 9.54-5.46 8.51-13.47 13.6-23 16.64-7.34 1.33-15.48 1.29-22-2.64-7.13-5.2-12.5-14.3-14-23-.6-7.93-1.16-15.53 4-22 10.04-11 26.12-16.59 39-7M338 828h6c-.5 7.22-3.33 13.53-6 20.19l-1.48 3.73A596 596 0 0 1 323 883l-5-1c-1.12-3.35-.97-3.76.3-6.86l.95-2.35 1.06-2.54 1.08-2.64c3.28-7.97 6.72-15.86 10.2-23.74A254 254 0 0 0 338 828M617 832c2.8 1.4 2.98 3.35 3.93 6.2l.71 2.21.77 2.3 2.4 7.35 1.58 4.79q2.33 7.06 4.61 14.15l.76 2.34 2.13 6.66.65 2.01c.88 2.8 1.46 5.04 1.46 7.99l-6 1c-4.12-9.27-7.38-18.74-10.5-28.38l-2.48-7.53-2.32-7.08c-1.32-4.14-1.97-7.6-1.7-12.01 1.88-1.06 1.88-1.06 4-2M375.44 839.56c5.92 2.73 9.33 6.65 11.94 12.57.59 2.73.78 5.08.62 7.87-3 1-3 1-5.13.34-1.87-1.34-1.87-1.34-2.49-3.36l-.25-2.36c-.67-3.47-.94-4.43-3.5-7.06-5.02-2.16-10.14-3.55-15.63-3.56-3.51 1.63-4.83 2.74-7 6-.3 2.93-.3 2.93 1 6 3.25 3.44 7.41 5.69 11.5 7.98l1.87 1.05 3.7 2c4.68 2.53 7.72 5.25 9.9 10.15 1.29 5.17 1.1 8.39-1.62 13.03-2.8 3.73-5.87 6.3-10.35 7.79-9.52.98-18.37-.83-26-6.81-4.22-4.03-5.84-8.21-6.31-14C338 874 338 874 340 872h4l.3 1.76c1.1 5.8 2.31 10.94 7.5 14.46 5.6 3.03 10.59 4.26 16.95 3.1 3.43-1.4 4.68-2 6.25-5.32.67-2.96.67-2.96 0-6-4.58-5.4-10.57-8.79-16.5-12.54-4.91-3.18-8.81-6.09-11.5-11.46-.57-5.84.45-9.47 4-14 6.37-6.37 16.47-5.22 24.44-2.44M600.63 839.88l2.37.12c9.92 40.25 9.92 40.25 13 56l-7 2c-2.1-5.8-3.28-11.7-4.5-17.72l-.5-2.36-.44-2.14c-.48-2-.48-2-2.56-3.78-2.7.2-2.7.2-5.81.9l-3.51.7-3.68.77-10.42 2.14C575 877 575 877 573 877l.46 2.23 2.04 10.02.72 3.51.69 3.38.63 3.11C578 902 578 902 578 906h-7l-4.93-20.06c-7.33-29.74-7.33-29.74-7.07-36.94l7-1 5 22c7.77-.72 7.77-.72 15.35-1.97l2.64-.54 2.63-.55 2.76-.57q3.3-.67 6.62-1.37l-.5-2.08-2.12-9.3-.78-3.27-.7-3.12-.67-2.9L596 842c2-2 2-2 4.63-2.12M400 848h6c-.7 8.06-1.85 15.97-3 24l30 6 2.54-13.64.49-2.57.49-2.64C437 857 437 857 438 855h5a80 80 0 0 1-1.46 17.8l-.46 2.44-1.45 7.63-2.8 14.8q-1.47 7.66-2.83 15.33l-7-1c.64-6.24 1.5-12.39 2.56-18.56l.42-2.48L431 885l-12.19-2.5-3.48-.72-3.37-.69-3.1-.63c-3.2-.6-3.2-.6-7.86-.46l-6 27c-5-2-5-2-5.86-3.8-.16-2.6.14-4.76.65-7.3l.6-3.08.66-3.3.67-3.4 1.42-7.1a2784 2784 0 0 0 3.54-17.8l1.27-6.37.54-2.7C399 850 399 850 400 848M451 855q2.5-.06 5 0c1 1 1 1 1.1 2.75l-.09 4.92-.05 2.84-.07 5.93q-.05 4.68-.14 9.36-.07 4.52-.1 9.02l-.08 2.82c-.02 5.79.64 8.92 4.43 13.36 4.91 3.65 12.23 2.66 18 2 4.5-2.95 5.54-5.97 7-11q.4-3 .6-6.04l.24-3.45.22-3.57.48-6.98.22-3.45q.57-8.25 1.24-16.51h6a2092 2092 0 0 1 .15 17.27c.3 25.23.3 25.23-5.15 34.73-6.82 6.46-13.96 6.52-22.88 6.3-5.77-.3-9.72-1.68-13.66-5.98-4.92-6.4-4.65-12.42-4.65-20.26v-3.2c.07-10.36.99-20.57 2.19-30.86M510 855q2.05 14.54 3.43 29.14l.6 6.16c.76 7.92 1.16 15.74.97 23.7h-7l-3.9-42.68-.34-3.6-.3-3.33-.27-2.94C503 859 503 859 503 856c2.5-.69 4.38-1 7-1" class=""/><path d="M 794 119.4666748046875 L 748 85.4666748046875 L 684 50.4666748046875 L 643 34.4666748046875 L 616 26.4666748046875 L 555 11.4666748046875 L 658 37.4666748046875 L 691 50.4666748046875 L 718 66.4666748046875 L 745 81.4666748046875 L 795 118.4666748046875 L 801 121.4666748046875 L 710 65.4666748046875 L 671 47.4666748046875 L 647 37.4666748046875 L 637 33.4666748046875 L 631 32.4666748046875 L 631 32.4666748046875" fill="none" stroke="#000000" stroke-width="5" opacity="1" id="path-1764915175287" data-opacity="1" data-stroke-width="5" data-stroke-color="#000000" data-fill-color="none" class=""/><path d="M 809 131.4666748046875 L 762 90.4666748046875 L 705 54.4666748046875 L 615 21.4666748046875 L 551 8.4666748046875 L 512 5.4666748046875 L 617 22.4666748046875 L 626 27.4666748046875 L 717 67.4666748046875 L 745 86.4666748046875 L 693 55.4666748046875 L 693 55.4666748046875" fill="none" stroke="#000000" stroke-width="5" opacity="1" id="path-1764915253748" data-opacity="1" data-stroke-width="5" data-stroke-color="#000000" data-fill-color="none" class=""/><path d="M 699 61.4666748046875 Q 699.875 61.4666748046875 700 61.4666748046875 Q 699.875 61.4666748046875 700 61.4666748046875 Q 700.75 61.4666748046875 701 61.4666748046875 Q 701.875 61.3416748046875 702 61.4666748046875 Q 701.875 62.3416748046875 702 62.4666748046875 Q 702.875 62.4666748046875 703 62.4666748046875 Q 702.875 62.4666748046875 703 62.4666748046875 Q 703.75 62.3416748046875 704 62.4666748046875 Q 704.875 63.3416748046875 705 63.4666748046875 Q 704.875 63.3416748046875 705 63.4666748046875 Q 705.75 64.3416748046875 706 64.4666748046875 Q 706.875 64.4666748046875 707 64.4666748046875 Q 706.875 64.3416748046875 707 64.4666748046875 Q 707.75 65.2166748046875 708 65.4666748046875 Q 708.875 66.2166748046875 709 66.4666748046875 Q 708.875 67.2166748046875 709 67.4666748046875 Q 709.875 68.3416748046875 710 68.4666748046875 Q 710 68.4666748046875 710 68.4666748046875 Q 710 68.3416748046875 710 68.4666748046875 Q 709.875 69.3416748046875 710 69.4666748046875 Q 710.75 69.4666748046875 711 69.4666748046875 Q 711.875 69.4666748046875 712 69.4666748046875 Q 712.125 69.4666748046875 712 69.4666748046875 Q 711.25 69.4666748046875 711 69.4666748046875 Q 710.125 69.4666748046875 710 69.4666748046875 Q 710.125 69.4666748046875 710 69.4666748046875 Q 709.125 69.4666748046875 709 69.4666748046875 Q 709 69.4666748046875 709 69.4666748046875 Q 709.125 69.4666748046875 709 69.4666748046875 Q 708.125 69.5916748046875 708 69.4666748046875 Q 708.125 68.5916748046875 708 68.4666748046875 Q 707.125 68.4666748046875 707 68.4666748046875 Q 707 68.5916748046875 707 68.4666748046875 Q 707 67.5916748046875 707 67.4666748046875 Q 707.125 67.4666748046875 707 67.4666748046875 Q 706.125 67.5916748046875 706 67.4666748046875 Q 706.125 66.5916748046875 706 66.4666748046875 Q 705.125 66.4666748046875 705 66.4666748046875 Q 705 66.4666748046875 705 66.4666748046875 Q 705.125 66.4666748046875 705 66.4666748046875 Q 704.125 66.5916748046875 704 66.4666748046875 Q 704.125 65.5916748046875 704 65.4666748046875 Q 703.125 65.4666748046875 703 65.4666748046875 Q 703.125 65.4666748046875 703 65.4666748046875 Q 702.125 65.4666748046875 702 65.4666748046875 Q 702.125 65.4666748046875 702 65.4666748046875 Q 701.125 65.5916748046875 701 65.4666748046875 Q 701.125 64.5916748046875 701 64.4666748046875 Q 700.125 64.4666748046875 700 64.4666748046875 Q 700 64.4666748046875 700 64.4666748046875 Q 700.125 64.5916748046875 700 64.4666748046875 Q 699.25 63.5916748046875 699 63.4666748046875 Q 698.125 63.5916748046875 698 63.4666748046875 Q 698 62.5916748046875 698 62.4666748046875 Q 698.125 62.4666748046875 698 62.4666748046875 L 697 62.4666748046875" fill="none" stroke="#000000" stroke-width="2" stroke-linecap="round" stroke-linejoin="round" opacity="1" id="pencil-1764915284129" data-opacity="1" data-blur="0" data-stroke-width="2" data-stroke-color="#000000" data-fill-color="none" data-dash-pattern="solid" data-smoothing="0.5" class=""/><path d="M 492 162.46665954589844 L 454 158.46665954589844 L 430 161.46665954589844 L 395 167.46665954589844 L 369 177.46665954589844 L 361 195.46665954589844 L 349 220.46665954589844 L 335 238.46665954589844 L 323 266.4666748046875 L 320 291.4666748046875 L 337 259.4666748046875 L 341 241.46665954589844 L 351 231.46665954589844 L 367 206.46665954589844 L 391 177.46665954589844 L 423 164.46665954589844 L 443 163.46665954589844 L 464 162.46665954589844 L 479 163.46665954589844 L 495 166.46665954589844 L 478 157.46665954589844 L 421 158.46665954589844 L 498 163.46665954589844 L 470 165.46665954589844 L 536 176.46665954589844 L 565 228.46665954589844 L 565 227.46665954589844 L 565 227.46665954589844 L 565 227.46665954589844 L 565 227.46665954589844" fill="none" stroke="#000000" stroke-width="5" opacity="1" id="path-1764915327883" data-opacity="1" data-stroke-width="5" data-stroke-color="#000000" data-fill-color="none" class=""/><path d="M 481 167.46665954589844 L 404 169.46665954589844 L 372 190.46665954589844 L 428 165.46665954589844 L 405 172.46665954589844 L 456 168.46665954589844 L 481 167.46665954589844 L 422 165.46665954589844 L 387 178.46665954589844 L 422 171.46665954589844 L 489 167.46665954589844 L 395 167.46665954589844 L 365 203.46665954589844 L 405 172.46665954589844 L 405 171.46665954589844" fill="none" stroke="#000000" stroke-width="5" opacity="1" id="path-1764915353774" data-opacity="1" data-stroke-width="5" data-stroke-color="#000000" data-fill-color="none" class=""/><path d="M 559 384.4666748046875 L 526 398.4666748046875 L 513 403.4666748046875 L 491 408.4666748046875 L 470 411.4666748046875 L 453 412.4666748046875 L 439 410.4666748046875 L 433 410.4666748046875 L 467 410.4666748046875 L 486 405.4666748046875 L 512 401.4666748046875 L 531 395.4666748046875 L 541 390.4666748046875 L 552 383.4666748046875 L 557 378.4666748046875 L 561 372.4666748046875 L 564 362.4666748046875 L 565 357.4666748046875 L 557 381.4666748046875 L 544 390.4666748046875 L 533 393.4666748046875 L 522 396.4666748046875 L 518 397.4666748046875 L 504 400.4666748046875 L 494 402.4666748046875 L 489 403.4666748046875 L 477 404.4666748046875 L 462 407.4666748046875 L 458 408.4666748046875 L 449 407.4666748046875 L 444 409.4666748046875 L 439 409.4666748046875 L 431 409.4666748046875 L 427 410.4666748046875 L 423 410.4666748046875 L 417 410.4666748046875 L 406 407.4666748046875 L 401 405.4666748046875 L 391 401.4666748046875 L 387 400.4666748046875 L 379 396.4666748046875 L 376 395.4666748046875" fill="none" stroke="#000000" stroke-width="6" opacity="1" id="path-1764915472138" data-opacity="1" data-stroke-width="6" data-stroke-color="#000000" data-fill-color="none" class="selected"/><path d="M 372 393.4666748046875 L 365 388.4666748046875 L 360 384.4666748046875 L 359 382.4666748046875" fill="none" stroke="#000000" stroke-width="2" opacity="1" id="path-1764915486883" data-opacity="1" data-stroke-width="2" data-stroke-color="#000000" data-fill-color="none" class="" transform="translate(361, 382.4666748046875) scale(0.8461538461538461, 1)"/><path d="M 351 375.4666748046875 L 339 350.4666748046875 L 322 310.4666748046875 L 323 319.4666748046875 L 325 324.4666748046875 L 329 332.4666748046875 L 332 340.4666748046875 L 335 347.4666748046875 L 337 354.4666748046875 L 342 365.4666748046875 L 345 369.4666748046875 L 348 378.4666748046875 L 352 384.4666748046875 L 361 395.4666748046875 L 366 400.4666748046875 L 356 385.4666748046875 L 349 374.4666748046875 L 316 298.4666748046875 L 367 398.4666748046875 L 351 374.4666748046875 L 322 307.4666748046875 L 325 307.4666748046875 L 329 321.4666748046875 L 329 321.4666748046875" fill="none" stroke="#000000" stroke-width="5" opacity="1" id="path-1764915488056" data-opacity="1" data-stroke-width="5" data-stroke-color="#000000" data-fill-color="none" class=""/></g></svg>